<svg xmlns="http://www.w3.org/2000/svg" viewBox="0 0 512 512">
  <rect width="512" height="512" rx="112" fill="#15803d"/>
  <circle cx="256" cy="256" r="164" fill="#ffffff" opacity="0.14"/>
  <path fill="#ffffff" d="M158 202c0-18 14-32 32-32h132c18 0 32 14 32 32v154c0 18-14 32-32 32H190c-18 0-32-14-32-32V202Zm56 0v20h84v-20c0-23-19-42-42-42s-42 19-42 42Zm-28 0c0-39 31-70 70-70s70 31 70 70v20h12v-20c0-9-7-16-16-16H190c-9 0-16 7-16 16v154c0 9 7 16 16 16h132c9 0 16-7 16-16V250H174v106c0 9 7 16 16 16h132c9 0 16-7 16-16V250h-12v106c0 2-2 4-4 4H190c-2 0-4-2-4-4V250h-12v-28h12v-20Z"/>
</svg>
